<mxfile host="Electron" agent="Mozilla/5.0 (X11; Linux x86_64) AppleWebKit/537.36 (KHTML, like Gecko) draw.io/26.0.9 Chrome/128.0.6613.186 Electron/32.2.5 Safari/537.36" version="26.0.9">
  <diagram name="Page-1" id="l2izVTyPwMkT2U4JN9Jk">
    <mxGraphModel dx="671" dy="395" grid="1" gridSize="10" guides="1" tooltips="1" connect="1" arrows="1" fold="1" page="1" pageScale="1" pageWidth="850" pageHeight="1100" math="0" shadow="0">
      <root>
        <mxCell id="0" />
        <mxCell id="1" parent="0" />
        <mxCell id="JSdAFgyhsa3mYer9gAd3-35" value="" style="group" vertex="1" connectable="0" parent="1">
          <mxGeometry x="60" y="60" width="230" height="290" as="geometry" />
        </mxCell>
        <mxCell id="JSdAFgyhsa3mYer9gAd3-2" value="Service Mesh" style="points=[];aspect=fixed;html=1;align=center;shadow=0;dashed=0;fillColor=#000000;strokeColor=none;shape=mxgraph.alibaba_cloud.asm_service_mesh;labelPosition=center;verticalLabelPosition=bottom;verticalAlign=top;" vertex="1" parent="JSdAFgyhsa3mYer9gAd3-35">
          <mxGeometry x="10" width="43.199999999999996" height="50.099999999999994" as="geometry" />
        </mxCell>
        <mxCell id="JSdAFgyhsa3mYer9gAd3-8" value="Environment" style="sketch=0;outlineConnect=0;fontColor=#232F3E;gradientColor=none;fillColor=#000000;strokeColor=none;dashed=0;verticalLabelPosition=bottom;verticalAlign=top;align=center;html=1;fontSize=12;fontStyle=0;aspect=fixed;pointerEvents=1;shape=mxgraph.aws4.braket_simulator_3;" vertex="1" parent="JSdAFgyhsa3mYer9gAd3-35">
          <mxGeometry x="170" width="50" height="50" as="geometry" />
        </mxCell>
        <mxCell id="JSdAFgyhsa3mYer9gAd3-9" value="" style="shape=process;whiteSpace=wrap;html=1;backgroundOutline=1;fillColor=none;size=0.045454545454545456;editable=0;movable=0;resizable=0;rotatable=0;deletable=0;locked=1;connectable=0;allowArrows=0;" vertex="1" parent="JSdAFgyhsa3mYer9gAd3-35">
          <mxGeometry y="80" width="230" height="210" as="geometry" />
        </mxCell>
        <mxCell id="JSdAFgyhsa3mYer9gAd3-12" value="" style="endArrow=classic;html=1;rounded=0;fillColor=#d5e8d4;strokeColor=#82b366;" edge="1" parent="JSdAFgyhsa3mYer9gAd3-35">
          <mxGeometry width="50" height="50" relative="1" as="geometry">
            <mxPoint x="10" y="120" as="sourcePoint" />
            <mxPoint x="220" y="150" as="targetPoint" />
          </mxGeometry>
        </mxCell>
        <mxCell id="JSdAFgyhsa3mYer9gAd3-13" value="{endpoints: [...]}" style="edgeLabel;html=1;align=center;verticalAlign=middle;resizable=0;points=[];" vertex="1" connectable="0" parent="JSdAFgyhsa3mYer9gAd3-12">
          <mxGeometry x="0.2453" relative="1" as="geometry">
            <mxPoint x="-26" y="11" as="offset" />
          </mxGeometry>
        </mxCell>
        <mxCell id="JSdAFgyhsa3mYer9gAd3-18" value="" style="endArrow=classic;html=1;rounded=0;fillColor=#d5e8d4;strokeColor=#82b366;" edge="1" parent="JSdAFgyhsa3mYer9gAd3-35">
          <mxGeometry width="50" height="50" relative="1" as="geometry">
            <mxPoint x="10" y="220" as="sourcePoint" />
            <mxPoint x="220" y="250" as="targetPoint" />
          </mxGeometry>
        </mxCell>
        <mxCell id="JSdAFgyhsa3mYer9gAd3-19" value="{uuid: &quot;82efd-....&quot;}" style="edgeLabel;html=1;align=center;verticalAlign=middle;resizable=0;points=[];" vertex="1" connectable="0" parent="JSdAFgyhsa3mYer9gAd3-18">
          <mxGeometry x="-0.003" y="-1" relative="1" as="geometry">
            <mxPoint x="1" y="14" as="offset" />
          </mxGeometry>
        </mxCell>
        <mxCell id="JSdAFgyhsa3mYer9gAd3-20" value="" style="endArrow=none;html=1;strokeWidth=1;rounded=0;dashed=1;dashPattern=1 2;" edge="1" parent="JSdAFgyhsa3mYer9gAd3-35">
          <mxGeometry width="50" height="50" relative="1" as="geometry">
            <mxPoint x="10" y="165" as="sourcePoint" />
            <mxPoint x="220" y="165" as="targetPoint" />
          </mxGeometry>
        </mxCell>
        <mxCell id="JSdAFgyhsa3mYer9gAd3-21" value="" style="endArrow=none;html=1;strokeWidth=1;rounded=0;dashed=1;dashPattern=1 2;" edge="1" parent="JSdAFgyhsa3mYer9gAd3-35">
          <mxGeometry width="50" height="50" relative="1" as="geometry">
            <mxPoint x="10" y="270" as="sourcePoint" />
            <mxPoint x="220" y="270" as="targetPoint" />
          </mxGeometry>
        </mxCell>
        <mxCell id="JSdAFgyhsa3mYer9gAd3-10" value="" style="endArrow=classic;html=1;rounded=0;fillColor=#f8cecc;strokeColor=#b85450;" edge="1" parent="JSdAFgyhsa3mYer9gAd3-35">
          <mxGeometry width="50" height="50" relative="1" as="geometry">
            <mxPoint x="220" y="100" as="sourcePoint" />
            <mxPoint x="10" y="120" as="targetPoint" />
          </mxGeometry>
        </mxCell>
        <mxCell id="JSdAFgyhsa3mYer9gAd3-11" value="/services" style="edgeLabel;html=1;align=center;verticalAlign=middle;resizable=0;points=[];" vertex="1" connectable="0" parent="JSdAFgyhsa3mYer9gAd3-10">
          <mxGeometry x="0.2453" relative="1" as="geometry">
            <mxPoint x="21" y="-12" as="offset" />
          </mxGeometry>
        </mxCell>
        <mxCell id="JSdAFgyhsa3mYer9gAd3-14" value="" style="endArrow=classic;html=1;rounded=0;fillColor=#f8cecc;strokeColor=#b85450;" edge="1" parent="JSdAFgyhsa3mYer9gAd3-35">
          <mxGeometry width="50" height="50" relative="1" as="geometry">
            <mxPoint x="220" y="200" as="sourcePoint" />
            <mxPoint x="10" y="220" as="targetPoint" />
          </mxGeometry>
        </mxCell>
        <mxCell id="JSdAFgyhsa3mYer9gAd3-17" value="/register, {&quot;192.168.0.1&quot;, 8000,&amp;nbsp;&lt;div&gt;&lt;span style=&quot;white-space: pre;&quot;&gt;&#x9;&lt;/span&gt;endpoints: [...]}&lt;/div&gt;" style="edgeLabel;html=1;align=center;verticalAlign=middle;resizable=0;points=[];" vertex="1" connectable="0" parent="JSdAFgyhsa3mYer9gAd3-14">
          <mxGeometry x="-0.003" y="-1" relative="1" as="geometry">
            <mxPoint y="-24" as="offset" />
          </mxGeometry>
        </mxCell>
      </root>
    </mxGraphModel>
  </diagram>
</mxfile>
